<?xml version="1.0" standalone="no"?>
<!DOCTYPE svg PUBLIC "-//W3C//DTD SVG 20010904//EN"
 "http://www.w3.org/TR/2001/REC-SVG-20010904/DTD/svg10.dtd">
<svg version="1.0" xmlns="http://www.w3.org/2000/svg"
 width="2000.000000pt" height="2000.000000pt" viewBox="0 0 2000.000000 2000.000000"
 preserveAspectRatio="xMidYMid meet">

<g transform="translate(0.000000,2000.000000) scale(0.100000,-0.100000)"
fill="#000000" stroke="none">
<path d="M11960 18199 c-221 -18 -447 -131 -609 -304 -221 -237 -307 -585
-221 -903 15 -54 19 -87 13 -95 -5 -6 -49 -61 -98 -120 -91 -112 -103 -143
-72 -175 15 -14 30 -13 176 8 l160 23 84 -80 c131 -125 304 -216 475 -249 92
-17 276 -20 359 -5 570 106 922 694 742 1243 -99 300 -341 535 -642 622 -75
22 -150 33 -257 39 -19 1 -69 -1 -110 -4z m325 -98 c333 -96 572 -354 640
-690 23 -112 16 -294 -15 -401 -94 -319 -326 -544 -645 -625 -292 -74 -614 15
-831 230 -275 274 -341 679 -167 1031 107 216 331 398 560 454 43 10 87 21 98
24 49 12 291 -3 360 -23z"/>
<path d="M10228 18001 c-42 -75 -107 -88 -340 -72 -249 17 -390 -1 -535 -69
-202 -94 -349 -258 -360 -404 l-5 -61 -52 -25 c-93 -46 -144 -152 -153 -320
-5 -100 18 -234 52 -301 l16 -30 34 30 c43 37 100 54 157 45 36 -6 53 -18 109
-75 36 -38 73 -69 83 -69 18 0 60 62 109 160 30 61 32 71 32 175 0 116 -17
189 -55 237 l-18 24 33 -4 c51 -6 199 16 281 42 41 13 139 61 218 106 183 103
228 120 314 120 132 -1 190 -53 244 -222 17 -54 34 -98 39 -98 15 0 59 66 65
98 8 41 -11 110 -40 147 l-23 29 25 54 c29 65 28 146 -5 190 -29 40 -82 72
-117 72 l-31 0 0 82 c0 65 -5 92 -21 122 -26 50 -35 53 -56 17z"/>
<path d="M6694 17078 l-109 -203 3 -1225 2 -1225 55 -30 c43 -23 59 -27 73
-19 9 6 44 26 77 44 33 18 68 38 78 44 16 10 17 83 17 1294 l0 1283 31 17 c16
9 46 26 65 37 l34 21 -72 54 c-40 30 -89 67 -109 83 l-37 27 -108 -202z"/>
<path d="M10203 17214 c-14 -14 -22 -29 -17 -33 8 -7 149 -61 160 -61 2 0 4
14 4 31 0 20 -10 40 -29 60 -38 38 -82 39 -118 3z"/>
<path d="M9638 17139 c-35 -13 -62 -71 -50 -107 5 -15 13 -26 18 -25 15 3 133
97 134 106 0 7 -63 39 -72 36 -2 0 -15 -5 -30 -10z"/>
<path d="M4745 17066 c-11 -7 -155 -91 -320 -186 -333 -192 -311 -178 -302
-186 6 -7 631 347 657 372 12 12 12 14 -1 14 -8 0 -23 -6 -34 -14z"/>
<path d="M10240 17029 c-31 -13 -40 -26 -40 -66 0 -22 8 -38 26 -52 35 -27 59
-26 89 4 57 56 -1 143 -75 114z"/>
<path d="M9701 16934 c-12 -15 -21 -34 -21 -44 0 -10 9 -29 21 -44 41 -53 119
-21 119 48 0 64 -79 90 -119 40z"/>
<path d="M1621 16639 c-7 -19 -11 -111 -11 -225 l0 -192 65 -36 c36 -20 67
-36 68 -36 1 0 0 78 -1 174 -3 136 0 186 12 228 8 29 14 53 13 53 -1 1 -28 16
-59 33 -32 18 -62 32 -67 32 -5 0 -14 -14 -20 -31z"/>
<path d="M4564 16454 c-345 -200 -338 -196 -348 -236 -9 -36 -7 -40 112 -207
67 -93 127 -173 133 -177 6 -3 17 0 25 7 13 14 234 567 253 634 11 40 6 65
-13 65 -7 0 -79 -39 -162 -86z"/>
<path d="M9830 16506 c0 -8 15 -17 36 -21 37 -6 114 -49 114 -63 1 -4 11 -20
24 -36 l24 -29 31 22 c28 20 68 78 59 86 -3 3 -273 55 -285 55 -1 0 -3 -6 -3
-14z"/>
<path d="M17757 16467 c-48 -27 -56 -35 -51 -52 4 -11 9 -113 11 -227 3 -115
7 -208 10 -208 4 0 35 17 70 37 l63 37 -1 186 c0 179 -10 249 -34 256 -5 2
-36 -11 -68 -29z"/>
<path d="M9216 16333 c-10 -14 -34 -31 -52 -39 l-34 -14 46 -63 c73 -100 77
-98 69 29 -4 60 -8 110 -9 111 0 0 -9 -10 -20 -24z"/>
<path d="M4155 15978 c3 -8 -41 -39 -125 -88 -71 -41 -130 -79 -130 -84 0 -12
20 -3 152 74 88 51 124 67 129 58 10 -16 18 -8 21 23 3 20 -2 25 -24 27 -20 2
-26 -1 -23 -10z"/>
<path d="M10110 15831 c0 -24 13 -39 70 -86 317 -256 476 -588 554 -1160 18
-130 42 -415 59 -682 l12 -192 150 84 c83 47 158 85 168 85 17 0 18 8 12 113
l-7 112 99 -98 99 -97 384 216 c212 119 460 258 552 310 l167 95 -39 55 c-45
64 -96 182 -106 242 -4 23 -10 42 -13 42 -4 0 -103 -61 -220 -135 -116 -74
-215 -135 -220 -135 -4 0 -25 26 -47 58 -411 604 -656 912 -807 1014 -67 45
-141 80 -208 96 -51 13 -600 92 -636 92 -19 0 -23 -6 -23 -29z"/>
<path d="M8900 15699 c-633 -211 -643 -219 -912 -749 -173 -342 -292 -628
-423 -1025 -77 -231 -88 -279 -89 -380 -2 -219 58 -283 766 -797 l186 -136 21
58 c50 137 181 279 322 350 81 40 84 41 99 22 68 -83 152 -168 187 -189 27
-16 65 -27 102 -30 l58 -6 157 88 156 87 0 612 c-1 895 -14 1170 -76 1511 -41
233 -120 511 -172 610 -8 16 -18 44 -21 61 l-6 32 -355 -119z m-353 -1984 c-1
-140 -4 -255 -7 -254 -3 0 -39 41 -81 91 l-76 90 76 164 c42 90 79 164 83 164
4 0 6 -115 5 -255z"/>
<path d="M4470 15604 c0 -101 -3 -153 -10 -149 -16 10 -12 -21 5 -35 12 -10
18 -10 30 0 17 14 21 45 5 35 -7 -4 -10 48 -10 149 0 97 -4 156 -10 156 -6 0
-10 -59 -10 -156z"/>
<path d="M2510 15484 c0 -177 -2 -205 -14 -195 -19 16 -16 -10 3 -33 13 -15
15 -15 32 0 20 18 26 40 9 29 -7 -4 -10 65 -10 199 0 131 -4 206 -10 206 -6 0
-10 -75 -10 -206z"/>
<path d="M3734 15412 c-54 -32 -196 -114 -314 -182 -118 -67 -221 -129 -229
-136 -36 -34 4 -17 119 50 69 40 213 123 320 185 199 115 217 127 209 136 -3
3 -50 -21 -105 -53z"/>
<path d="M3129 15396 c-1 -3 -2 -11 -3 -18 0 -6 -54 -42 -120 -79 -124 -71
-151 -89 -126 -88 8 0 71 33 140 73 81 48 127 70 132 63 8 -14 13 -9 22 21 4
12 3 22 -3 22 -5 0 -16 3 -25 6 -9 3 -17 3 -17 0z"/>
<path d="M4036 14780 c-116 -69 -144 -81 -130 -59 4 7 1 10 -7 7 -23 -7 -23
-55 -1 -60 23 -7 52 7 31 14 -12 4 24 28 179 117 39 23 72 44 72 46 0 15 -38
-2 -144 -65z"/>
<path d="M4470 14573 l0 -78 -63 -36 c-34 -20 -136 -79 -227 -131 -754 -436
-1643 -948 -1646 -948 -2 0 -4 43 -4 96 0 61 4 93 10 89 18 -11 10 21 -9 39
-18 16 -20 16 -35 -6 -20 -28 -20 -39 -1 -32 13 5 15 -10 15 -106 0 -95 2
-111 15 -106 15 5 216 120 780 446 165 96 426 246 580 335 154 89 353 204 443
255 l162 94 0 83 c0 49 -4 83 -10 83 -6 0 -10 -33 -10 -77z"/>
<path d="M3035 14202 c-79 -46 -131 -70 -133 -63 -3 9 -7 9 -18 0 -21 -17 -17
-46 8 -52 25 -7 45 2 28 13 -7 4 38 36 117 80 149 85 136 76 132 88 -2 5 -62
-25 -134 -66z"/>
<path d="M4910 14193 c-55 -32 -55 -32 -47 -39 3 -4 26 5 51 19 l46 26 0 -484
0 -483 -44 -25 c-30 -17 -46 -21 -49 -14 -5 15 -13 8 -21 -19 -5 -17 -2 -23
16 -27 12 -4 27 -2 32 3 7 7 5 10 -5 10 -7 0 10 14 39 31 l52 31 0 499 c0 393
-3 499 -12 499 -7 0 -33 -12 -58 -27z"/>
<path d="M4093 13736 c4 -9 -37 -37 -124 -87 -71 -40 -129 -77 -129 -82 0 -13
19 -4 151 73 86 50 119 65 119 53 0 -13 3 -13 15 -3 20 16 19 46 -1 54 -25 10
-37 7 -31 -8z"/>
<path d="M2113 13669 l-53 -31 0 -555 c0 -305 3 -553 8 -551 4 2 31 16 60 31
29 15 52 22 52 16 0 -8 4 -8 15 1 8 7 15 20 15 30 0 20 -40 34 -54 20 -7 -7
-5 -10 5 -10 16 -1 -9 -23 -53 -46 l-28 -15 0 535 0 535 50 28 c27 15 50 31
50 36 0 12 -13 8 -67 -24z"/>
<path d="M4462 13628 c-15 -15 -16 -42 -2 -33 7 5 10 -29 8 -101 l-3 -108 -50
-29 c-27 -16 -169 -98 -315 -182 -146 -84 -303 -175 -350 -202 -172 -100 -361
-209 -620 -358 -146 -84 -339 -196 -430 -249 l-165 -95 -3 69 c-4 100 -22 87
-22 -15 0 -47 2 -85 5 -85 4 0 144 80 395 225 143 83 307 178 635 367 110 64
256 148 325 188 69 40 220 126 335 193 116 66 227 131 248 144 l37 23 0 111
c0 71 4 108 10 104 14 -9 12 19 -2 33 -7 7 -15 12 -18 12 -3 0 -11 -5 -18 -12z"/>
<path d="M15448 13417 c-68 -26 -128 -68 -156 -109 l-27 -42 0 -591 0 -591 27
-41 c16 -24 51 -56 83 -75 l55 -33 0 -962 c0 -760 -3 -962 -12 -966 -7 -3 -2
-6 12 -6 35 -1 142 61 157 90 10 18 13 222 13 886 l0 862 193 -112 c294 -170
307 -177 353 -177 61 0 175 61 211 113 l28 40 0 597 0 596 -27 41 c-26 40
-103 86 -753 459 -52 30 -110 38 -157 21z m283 -517 c75 -49 151 -174 184
-299 19 -75 22 -199 6 -259 -13 -46 -61 -107 -92 -117 -12 -4 -22 -19 -26 -36
-6 -31 -10 -34 -32 -20 -11 7 -13 32 -9 117 5 126 24 180 60 170 20 -5 20 -4
5 11 -13 13 -19 14 -31 4 -19 -16 -32 -8 -52 30 -10 19 -13 42 -9 62 5 27 4
29 -6 13 -9 -15 -13 -16 -21 -5 -7 10 -8 9 -4 -5 4 -11 1 -23 -6 -28 -16 -10
-71 -10 -84 0 -5 4 1 -3 14 -16 31 -30 39 -62 48 -187 6 -88 4 -105 -8 -105
-22 0 -38 21 -38 50 0 14 -11 45 -25 70 -78 139 -110 257 -103 379 11 174 112
249 229 171z m13 -420 c24 -36 25 -45 17 -78 -6 -20 -12 -75 -15 -121 -3 -46
-7 -85 -10 -88 -2 -2 -13 0 -24 6 -16 9 -20 26 -26 128 -3 65 -9 132 -12 150
-6 31 -2 34 37 42 4 0 18 -17 33 -39z m-1 -320 c52 -29 75 -60 45 -60 -19 0
-145 78 -151 94 -9 22 4 28 27 12 12 -7 47 -28 79 -46z m-14 -51 c56 -33 71
-47 71 -65 0 -37 -22 -74 -47 -80 -43 -11 -103 66 -116 149 -7 48 2 48 92 -4z"/>
<path d="M15694 12646 c-3 -8 -4 -23 -1 -33 4 -14 5 -13 6 5 1 26 31 31 32 5
0 -12 2 -13 6 -5 5 14 -14 42 -29 42 -5 0 -11 -6 -14 -14z"/>
<path d="M15597 12593 c-4 -3 -7 -13 -7 -22 0 -14 2 -14 9 -2 8 13 12 13 28 1
16 -13 16 -12 -1 8 -22 25 -20 24 -29 15z"/>
<path d="M15796 12419 c6 -11 44 -12 44 -1 0 4 -11 8 -25 8 -14 1 -22 -2 -19
-7z"/>
<path d="M3075 13148 c3 -8 -45 -42 -125 -87 -72 -41 -130 -79 -130 -84 0 -13
15 -6 150 72 66 39 123 71 127 71 3 0 2 -7 -1 -16 -5 -14 -4 -15 8 -5 21 17
26 49 9 55 -25 10 -43 7 -38 -6z"/>
<path d="M4015 12688 c-70 -41 -121 -65 -123 -59 -3 9 -8 9 -18 0 -21 -17 -17
-46 8 -52 25 -7 46 2 28 13 -11 7 41 41 177 116 29 16 53 35 53 42 0 6 -1 12
-2 11 -2 0 -57 -32 -123 -71z"/>
<path d="M8496 12548 c-14 -88 -17 -190 -7 -202 8 -10 6 -54 -8 -167 -41 -320
-52 -500 -91 -1484 -50 -1249 -42 -1150 -101 -1354 -122 -426 -150 -765 -151
-1796 l-1 -559 39 -34 c114 -101 368 -155 560 -121 88 15 183 48 193 67 14 28
291 1018 415 1487 72 270 262 1141 427 1950 11 55 23 107 26 115 6 14 18 -79
109 -819 l37 -303 -19 -152 c-15 -122 -19 -212 -18 -476 0 -289 3 -351 27
-555 45 -371 98 -754 133 -946 l16 -86 87 -27 c179 -55 374 -71 511 -42 58 12
208 60 217 69 4 4 32 246 58 487 9 85 18 173 21 195 79 739 124 1252 145 1630
14 253 7 1663 -10 2085 -17 404 -31 702 -36 741 l-5 37 75 35 c72 35 75 37 75
71 0 19 -4 37 -9 41 -6 3 -32 -7 -58 -23 -26 -16 -223 -127 -436 -247 -354
-198 -392 -217 -425 -212 -20 3 -45 8 -54 12 -15 6 -18 2 -18 -24 0 -25 -4
-31 -21 -31 -11 0 -92 43 -180 95 l-159 94 -98 -6 c-120 -7 -306 10 -444 42
-163 36 -296 93 -423 181 -119 82 -363 246 -382 257 -8 5 -14 -3 -17 -25z"/>
<path d="M6080 12343 c-206 -118 -195 -111 -187 -119 5 -5 351 187 371 207 33
32 -23 5 -184 -88z"/>
<path d="M6080 12259 c-172 -99 -212 -125 -179 -117 24 5 368 202 369 211 0
15 -19 5 -190 -94z"/>
<path d="M14412 12273 c2 -9 85 -63 198 -128 107 -61 271 -155 363 -208 92
-53 172 -97 178 -97 6 0 9 8 7 17 -2 10 -55 47 -123 86 -474 273 -605 347
-615 347 -6 0 -10 -7 -8 -17z"/>
<path d="M4226 12224 c-3 -9 -6 -485 -6 -1059 0 -784 3 -1051 12 -1070 14 -31
123 -95 159 -94 13 0 18 3 11 6 -10 4 -12 224 -12 1076 l0 1072 -72 42 c-83
48 -84 49 -92 27z"/>
<path d="M6085 12039 c-93 -55 -177 -104 -185 -109 -8 -5 -12 -11 -9 -15 8 -7
379 205 379 216 0 15 -11 10 -185 -92z"/>
<path d="M14410 12108 c0 -7 78 -57 173 -111 94 -54 258 -147 362 -207 105
-60 196 -110 203 -110 44 0 -17 46 -193 147 -110 63 -270 154 -356 204 -153
87 -189 102 -189 77z"/>
<path d="M6075 11949 c-93 -54 -174 -100 -180 -102 -5 -3 -7 -8 -3 -12 4 -4
83 36 176 90 186 105 216 125 192 124 -8 -1 -91 -45 -185 -100z"/>
<path d="M6075 11724 c-99 -57 -182 -109 -184 -115 -2 -7 0 -10 5 -7 111 59
374 214 374 220 0 14 -13 8 -195 -98z"/>
<path d="M6080 11643 c-206 -118 -195 -111 -188 -119 6 -5 351 187 372 207 5
5 7 11 5 13 -3 3 -88 -42 -189 -101z"/>
<path d="M13590 11670 c-65 -65 -50 -225 32 -353 58 -90 145 -131 210 -96 64
35 62 216 -5 329 -27 47 -86 108 -119 126 -40 21 -94 18 -118 -6z"/>
<path d="M5728 11557 l-58 -32 0 -78 0 -79 48 28 c26 15 55 32 65 38 14 9 17
25 17 83 0 40 -3 73 -7 73 -5 -1 -34 -15 -65 -33z"/>
<path d="M4740 11249 c-58 -33 -107 -62 -109 -64 -1 -2 2 -43 9 -92 15 -113
50 -192 107 -243 56 -49 99 -63 176 -58 96 6 183 54 288 158 48 47 89 95 93
107 5 17 -6 41 -45 100 -29 43 -54 80 -55 82 -2 2 -27 -19 -54 -47 -60 -59
-109 -85 -163 -85 -69 0 -121 60 -135 158 l-7 45 -105 -61z"/>
<path d="M3523 9140 c-32 -13 -38 -31 -67 -185 -30 -164 -38 -175 -137 -194
-35 -7 -114 -25 -176 -42 -62 -16 -122 -29 -134 -29 -11 0 -125 48 -251 106
-177 82 -236 105 -258 101 -15 -3 -72 -32 -126 -63 -55 -32 -146 -84 -204
-117 -58 -33 -111 -67 -117 -75 -9 -11 -13 -67 -13 -198 l0 -182 101 -72 c76
-54 98 -75 87 -81 -13 -7 -81 -13 -403 -34 -160 -11 -190 -16 -202 -32 -10
-13 -13 -101 -13 -359 0 -370 0 -373 53 -374 120 -3 559 -38 567 -46 7 -7 -21
-33 -85 -79 -53 -38 -98 -78 -101 -89 -2 -12 -3 -99 -2 -194 l3 -174 215 -124
c165 -95 223 -124 251 -124 25 0 104 31 253 100 119 55 229 100 245 100 16 0
72 -11 125 -25 52 -14 130 -32 173 -41 111 -21 115 -26 148 -202 15 -81 34
-155 43 -164 14 -16 43 -18 338 -18 274 0 325 2 338 15 19 19 20 23 47 179 29
166 31 168 169 196 58 12 135 30 171 41 36 10 81 19 99 19 21 0 114 -37 250
-100 147 -68 228 -100 252 -100 28 0 85 28 250 123 l213 123 2 195 3 194 -96
69 c-82 59 -94 71 -81 81 10 7 103 16 234 24 120 6 235 14 256 17 l37 6 0
-266 c0 -261 0 -265 23 -290 12 -14 107 -86 211 -160 150 -107 192 -133 203
-124 8 6 31 41 53 77 49 85 140 212 196 275 47 52 60 82 50 120 -4 18 -97 90
-344 267 -185 133 -349 254 -364 267 -45 41 -34 99 22 122 l30 12 0 213 c0
167 -3 215 -14 224 -15 13 -51 18 -191 26 -363 21 -442 31 -409 53 6 4 49 35
97 70 l87 63 0 188 c0 154 -3 191 -15 201 -15 12 -166 101 -338 197 -77 43
-104 54 -127 50 -15 -4 -121 -49 -235 -102 -114 -53 -221 -99 -239 -102 -18
-3 -61 4 -101 16 -39 12 -121 32 -184 45 -62 14 -120 31 -128 39 -8 7 -28 85
-46 173 -29 143 -34 160 -57 171 -29 14 -602 17 -637 3z m627 -984 c215 -44
397 -129 521 -244 71 -66 109 -117 109 -148 0 -59 -101 -187 -202 -255 -194
-132 -451 -201 -742 -200 -395 1 -743 136 -883 340 -54 78 -59 100 -37 148 26
55 148 172 229 219 138 80 330 142 510 163 128 16 362 5 495 -23z"/>
<path d="M15282 9140 c-28 -12 -34 -29 -61 -175 -34 -188 -30 -183 -171 -211
-47 -9 -122 -27 -168 -40 -45 -13 -94 -24 -108 -24 -14 0 -129 48 -255 106
-181 84 -236 105 -259 101 -15 -4 -77 -35 -137 -70 -59 -35 -154 -90 -210
-123 l-103 -59 0 -195 c0 -188 1 -196 21 -209 12 -7 55 -38 97 -68 56 -42 71
-58 60 -64 -13 -7 -163 -20 -408 -34 -223 -13 -211 0 -209 -229 l1 -171 80
-45 c43 -25 84 -51 90 -58 7 -8 12 -62 12 -137 1 -68 3 -126 6 -129 3 -3 99
-11 213 -19 117 -7 212 -18 218 -24 8 -8 -16 -30 -85 -79 l-96 -68 0 -196 1
-195 213 -122 c165 -95 222 -123 250 -123 25 0 104 32 251 100 118 55 227 100
243 100 23 0 224 -45 365 -81 48 -13 57 -32 87 -199 12 -69 28 -135 36 -147
l14 -23 330 0 330 0 13 23 c8 12 27 89 42 170 23 123 31 150 49 162 11 8 67
23 122 35 56 11 132 30 170 40 38 11 83 20 100 20 19 0 119 -41 247 -100 158
-73 226 -100 254 -99 30 0 82 26 248 122 l210 122 3 196 2 196 -96 68 c-67 48
-92 71 -85 78 6 6 134 19 298 29 266 17 289 20 306 40 15 18 17 51 17 353 0
302 -2 335 -17 354 -20 23 -41 27 -193 36 -338 19 -421 28 -419 43 0 4 41 36
92 72 l92 65 3 195 2 196 -62 36 c-35 20 -130 75 -213 123 -82 47 -162 89
-177 92 -20 4 -84 -21 -257 -101 -127 -58 -239 -106 -250 -106 -10 0 -79 15
-152 34 -74 19 -155 37 -181 41 -73 11 -84 30 -117 200 -18 90 -35 154 -45
164 -15 14 -55 16 -324 18 -169 1 -317 -2 -330 -7z m593 -975 c170 -31 345
-98 470 -181 66 -43 162 -139 185 -185 19 -35 19 -36 -5 -88 -50 -108 -192
-226 -354 -295 -171 -74 -344 -106 -566 -106 -274 0 -484 49 -681 158 -90 49
-204 157 -240 226 l-29 55 22 43 c92 189 388 342 750 388 96 12 341 4 448 -15z"/>
<path d="M10184 6659 c-4 -7 -15 -64 -25 -128 -10 -64 -25 -154 -34 -201 -22
-112 -25 -362 -6 -408 11 -27 29 -40 95 -72 44 -21 117 -48 161 -60 118 -32
195 -80 395 -249 265 -222 708 -285 982 -139 74 39 98 67 105 119 l6 42 -36
-40 c-65 -71 -194 -115 -382 -128 -98 -7 -189 4 -299 36 l-68 21 6 36 c11 68
66 163 136 233 85 85 197 143 321 165 l87 16 -65 34 c-35 19 -83 46 -105 60
-37 24 -49 26 -108 22 -81 -6 -192 -56 -262 -117 -50 -44 -78 -52 -78 -22 0
40 170 146 281 174 l51 14 -45 26 c-56 33 -111 35 -191 7 -64 -22 -157 -75
-198 -115 -32 -30 -58 -33 -58 -5 0 40 179 149 285 173 l55 13 -42 33 c-41 31
-46 33 -109 28 -77 -5 -186 -53 -268 -117 -53 -42 -66 -47 -76 -29 -25 40 232
189 327 189 36 0 35 5 -5 43 -29 29 -37 32 -87 30 -106 -5 -256 -68 -331 -139
-30 -29 -49 -31 -49 -4 0 49 179 152 311 178 l78 15 -20 25 c-17 22 -47 109
-63 183 -11 50 -86 61 -224 33 -161 -33 -197 -67 -211 -201 l-8 -78 -22 50
c-44 100 -57 119 -118 173 -35 31 -63 64 -63 74 0 20 -15 24 -26 7z"/>
<path d="M8161 6494 c-13 -30 -39 -179 -71 -415 -23 -172 -36 -224 -104 -442
-59 -190 -99 -429 -61 -367 3 5 38 19 76 31 63 19 87 21 212 16 210 -7 379
-59 461 -142 l33 -33 6 332 c7 360 22 561 63 812 18 115 23 168 16 180 -9 15
-12 12 -20 -21 -26 -114 -31 -132 -41 -158 -16 -40 -34 -24 -26 23 13 75 -7
87 -192 115 -125 18 -289 20 -299 3 -4 -6 -13 -37 -21 -67 -12 -54 -12 -53 -7
52 5 108 -2 131 -25 81z m344 -428 c95 -27 176 -67 173 -85 -5 -21 -28 -18
-124 18 -140 51 -238 58 -391 25 -29 -6 -33 -4 -33 14 0 20 16 28 85 46 39 10
231 -2 290 -18z m-43 -167 c87 -18 200 -69 196 -88 -5 -22 -27 -19 -130 19
-105 37 -223 48 -313 30 -90 -18 -100 -18 -100 5 0 14 11 22 45 31 58 16 234
17 302 3z m-42 -185 c144 -27 238 -70 213 -95 -9 -9 -36 -4 -110 22 -93 32
-105 33 -233 32 -74 0 -146 -2 -160 -4 -20 -3 -25 0 -25 16 0 41 169 57 315
29z m-55 -194 c92 -13 246 -60 252 -78 12 -30 -14 -33 -88 -9 -119 39 -205 50
-334 45 -114 -5 -116 -5 -113 16 2 16 12 22 43 27 65 10 165 9 240 -1z"/>
<path d="M5070 5194 c0 -266 4 -365 13 -384 26 -53 42 -55 662 -94 319 -20
590 -39 602 -42 l23 -6 -1 361 c0 353 0 361 -20 372 -18 9 -642 54 -1044 75
-147 7 -188 17 -214 51 l-21 26 0 -359z"/>
<path d="M7902 5100 c0 -19 2 -27 5 -17 2 9 2 25 0 35 -3 9 -5 1 -5 -18z"/>
<path d="M7911 5040 c-1 -52 37 -199 62 -242 96 -165 361 -259 515 -182 79 39
121 98 168 238 30 88 30 111 0 30 -69 -186 -200 -264 -376 -223 -73 17 -170
70 -225 124 -52 51 -94 125 -126 225 -12 35 -18 46 -18 30z"/>
<path d="M5980 3909 l0 -366 23 -20 c12 -11 42 -32 67 -46 25 -14 142 -81 260
-150 570 -330 566 -327 621 -330 45 -2 52 1 56 18 2 11 1 176 -3 367 -5 263
-10 345 -19 342 -38 -15 -130 31 -547 271 -243 141 -446 261 -450 268 -4 7 -8
-153 -8 -354z"/>
<path d="M11530 3796 l0 -364 33 -7 c17 -4 235 -101 482 -215 248 -115 465
-211 483 -215 l32 -7 0 365 c0 389 1 377 -46 377 -12 0 -476 211 -784 357
-103 49 -165 73 -186 73 -12 0 -14 -62 -14 -364z"/>
<path d="M9030 2891 l0 -359 35 -31 36 -31 665 0 c439 0 672 4 685 10 18 10
19 25 19 376 0 345 -1 366 -17 358 -10 -5 -317 -10 -682 -12 l-665 -2 -38 25
-38 25 0 -359z"/>
</g>
</svg>
